<?xml version="1.0" encoding="UTF-8"?>
<svg id="Livello_2" data-name="Livello 2" xmlns="http://www.w3.org/2000/svg" viewBox="0 0 573.07 566.83">
  <defs>
    <style>
      .cls-1 {
        fill: #48d8ff;
        transition: 2000ms fill ease
      }

      .cls-2 {
        fill: #ff9086;
        transition: 2000ms fill ease
      }
    </style>
  </defs>
  <g id="Livello_3" data-name="Livello 3">
    <g id="Dadi">
      <g id="upper">
        <path class="cls-1" d="M360.05,392.14c.21,8.62-2.07,16.52-6.45,23.98-25.38,43.23-50.64,86.54-76.01,129.78-1.58,2.7-3.48,5.35-5.75,7.46-3.96,3.69-8.27,3.59-12.16-.13-1.96-1.87-3.66-4.14-5.02-6.49-24.84-43.07-49.76-86.09-74.32-129.32-8.61-15.16-8.45-31,.25-46.09,22.44-38.89,45.26-77.55,67.89-116.34,2.98-5.11,5.42-10.55,8.57-15.55,7.54-11.97,15.95-11.72,22.96,.47,24.59,42.74,49.14,85.5,73.79,128.19,4.33,7.49,6.53,15.4,6.24,24.03Zm-145.91-8.3c-1.52-5.37-2.43-11.01-4.7-16.04-3.07-6.8-9.1-7.18-12.97-.83-7.13,11.71-8.12,24.17-1.92,36.61,3.33,6.66,8.89,6.73,13.15,.53,4.13-6,5.37-12.87,6.43-20.28Zm104.29,13.95c.85,3.05,1.7,8.71,3.98,13.72,3.18,6.98,9.23,7.26,13.23,.74,7.04-11.48,7.66-23.69,2.01-35.87-3.34-7.21-8.96-7.34-13.52-.77-4.08,5.88-5.05,12.67-5.7,22.17Zm-42.39-120.64c-1.33-4.99-2.1-10.23-4.12-14.92-3.39-7.86-9.82-8.28-14.06-.88-6.49,11.32-7.07,23.31-1.59,35.2,3.3,7.17,9.13,7.37,13.57,.84,4.09-6.02,5.29-12.88,6.2-20.23Zm-20.51,226.92c1.31,5.13,2,10.54,4.07,15.34,3.26,7.56,9.78,7.9,13.92,.77,6.57-11.31,7.11-23.29,1.69-35.18-3.39-7.44-9.18-7.61-13.68-.8-3.93,5.94-5.2,12.63-5.99,19.86Z"/>
        <path class="cls-1" d="M482.87,385.54c-24.94,0-49.88,.11-74.82-.04-19.05-.11-33.57-8.38-43.13-25-23.9-41.55-47.78-83.11-71.64-124.69-1.57-2.74-3.18-5.52-4.22-8.48-2.34-6.67,.78-11.9,7.68-13.18,2.42-.45,4.92-.64,7.39-.65,50.7-.1,101.41-.37,152.11-.11,16.4,.09,29.88,7.58,38.17,21.7,25.66,43.71,50.71,87.78,75.97,131.73,.88,1.54,1.61,3.21,2.11,4.91,1.9,6.47-.81,11.13-7.41,12.69-1.85,.44-3.82,.48-5.74,.48-25.49,.03-50.97,.02-76.46,.02,0,.2,0,.4,0,.6Zm-166.78-159.11c-1.69,.86-5.22,1.65-7.08,3.85-2.57,3.03-.47,6.72,1.56,9.47,7.34,9.92,17.1,15.78,29.6,16.49,3.36,.19,6.82-.17,8.68-3.53,1.87-3.39,.19-6.56-1.69-9.25-7.13-10.24-17.17-15.5-31.08-17.03Zm227.4,140.31c1.67-.81,5.28-1.52,7.1-3.7,2.43-2.92,.64-6.65-1.39-9.51-7.19-10.11-17.07-15.84-29.45-16.43-2.88-.14-7.22,1.32-8.42,3.44-1.21,2.15-.28,6.62,1.3,9.04,6.81,10.43,17,15.54,30.86,17.16Zm-122.99-86.64c-1.76,.88-5.47,1.66-7.39,3.95-2.68,3.2-.25,6.93,1.84,9.79,7.13,9.78,16.88,15.15,28.94,16.13,3.49,.28,7.73,.12,8.82-3.63,.79-2.71,.07-6.74-1.54-9.13-6.85-10.17-16.88-15.37-30.68-17.11Zm30.75-54.64c-1.51,.76-5.32,1.53-7.08,3.85-2.36,3.1-.15,6.79,1.84,9.87,.3,.46,.62,.91,.97,1.33,5.8,6.99,13.09,11.76,21.91,13.83,3.25,.76,6.84,.87,10.14,.38,4.93-.73,6.58-4,5.02-8.78-.46-1.42-1.14-2.84-2.02-4.03-7.18-9.72-16.83-15.06-30.79-16.44Zm-70.47,110.53c-1.64,.84-5.65,1.6-6.67,3.77-1.13,2.4,.33,6.11,.98,9.19,.23,1.1,1.3,2.08,2.11,3,7.08,8.11,15.94,12.95,26.67,14.03,3.59,.36,7.41,.02,9.53-3.49,1.96-3.25,.45-6.49-1.43-9.25-7.12-10.48-17.43-15.51-31.19-17.25Z"/>
        <path class="cls-1" d="M478.43,399.3c27,0,54,0,81.01,.02,1.78,0,3.62-.02,5.33,.39,4.27,1.04,6,4.37,4.48,8.52-.66,1.8-1.61,3.5-2.57,5.16-26.41,45.34-52.78,90.71-79.3,135.99-6.73,11.5-17.15,17.33-30.43,17.36-53.59,.12-107.18,.07-160.77,.08-.69,0-1.38,0-2.07,0-8.13-.18-10.84-4.52-6.95-11.56,4.39-7.96,9.01-15.79,13.59-23.64,22.2-38.08,44.38-76.16,66.64-114.2,7.06-12.07,17.69-18.08,31.7-18.08,26.45,0,52.9,0,79.35,0v-.03Zm-95.48,48.88c11.08-1.68,21.68-7.82,27.95-20.01,3.39-6.6,.12-11.52-7.23-10.88-13.33,1.16-23.77,7.6-30.35,19.35-4.06,7.25-1.04,11.63,9.63,11.54Zm69.25,98.51c10.98-.12,25.74-9.73,30.13-19.61,3.21-7.22,.18-12.11-7.63-11.34-12.96,1.28-23.15,7.64-29.71,18.96-4.26,7.36-1.19,12.07,7.21,11.98Zm-4.6-100.23c11.48-1.73,22.18-7.74,28.58-19.86,3.57-6.76,.68-11.06-6.79-11.17-11.22-.17-26.51,9.58-30.96,19.73-3.11,7.09-.38,11.31,9.17,11.3Zm-38.79,68.81c-10.93,1.61-21.25,7.71-27.64,19.36-3.84,7-.74,11.84,7.24,11.33,13.31-.86,23.41-7.6,30-18.98,4.24-7.32,.99-11.97-9.6-11.7Zm-65.15,1.83c-11.12,1.65-21.72,7.72-28.08,19.84-3.47,6.6-.01,11.78,7.49,11.08,13.16-1.23,23.39-7.74,29.96-19.23,4.11-7.2,1.09-11.73-9.37-11.69Zm186.5-100.88c-11.09,1.53-21.68,7.59-28.06,19.73-3.58,6.82-.05,12.08,7.68,11.17,13.02-1.52,23.41-7.85,29.79-19.53,3.9-7.14,.97-11.43-9.42-11.37Z"/>
      </g>
      <g id="bottom">
        <path class="cls-2" d="M178.9,180.13c-1.05,10.54-4.25,19.62-12.31,26.56-40.73,35.03-81.42,70.1-122.11,105.17-8.39,7.23-12.98,5.75-15-5.15C19.74,254.23,9.94,201.75,.53,149.21c-2.08-11.6,2.03-22.03,10.88-29.74,33.24-28.94,66.74-57.59,100.14-86.35,7.1-6.11,14.19-12.23,21.29-18.34,1.36-1.17,2.7-2.37,4.15-3.41,5.6-4.02,10.07-2.51,11.63,4.28,1.76,7.64,3.09,15.37,4.51,23.09,8.2,44.51,16.38,89.03,24.55,133.55,.5,2.7,.84,5.43,1.21,7.84Zm-42.31,6.5c.27,1.62,.47,4.53,1.28,7.27,1.89,6.36,6.3,7.73,11.63,3.85,9.3-6.77,14.98-26.51,10.72-37.27-2.2-5.55-6.22-6.86-11.01-3.24-2.16,1.63-4.11,3.72-5.64,5.95-4.52,6.65-6.63,14.14-6.99,23.44Zm-21.51-112.93c.39,1.85,.73,5.03,1.75,7.96,1.89,5.44,5.92,6.59,10.71,3.38,9.81-6.57,15.81-27.18,11.09-38.1-2.1-4.86-5.92-6.13-10.3-3.15-1.89,1.29-3.62,2.98-5.03,4.8-5.39,6.98-7.62,15.1-8.22,25.1Zm-48.59,42.97c.75,3.31,1.12,6.77,2.35,9.89,1.75,4.45,5.66,5.47,9.77,2.95,1.27-.78,2.51-1.75,3.48-2.87,7.88-9.19,10.9-19.97,9.14-31.79-.44-2.97-2.77-6.64-5.31-8.07-3.47-1.95-6.75,1.02-9.21,3.71-1.65,1.81-3.12,3.85-4.32,5.99-3.48,6.21-5.39,12.89-5.89,20.19Zm21.93,113.32c.12,1.5-.25,3.93,.59,5.82,1.27,2.84,2.83,6.25,5.28,7.68,3.14,1.84,6.38-.73,8.61-3.24,8.44-9.49,11.91-20.63,9.51-33.14-.52-2.7-2.74-5.97-5.11-7.22-3.38-1.78-6.53,.83-8.94,3.45-6.73,7.33-9.66,16.13-9.95,26.64Zm-23.82,25.05c-.11-2.04-.03-3.85-.34-5.6-.65-3.72-1.54-7.64-5.62-8.92-3.95-1.24-6.93,1.39-9.26,4.11-7.89,9.19-10.65,20.02-9.12,31.89,.43,3.36,1.57,7.01,5.44,8.11,3.81,1.08,6.58-1.33,8.94-3.87,6.79-7.3,9.56-16.18,9.96-25.72Zm-21.44-114.07c-.18-1.47-.21-4.27-.91-6.89-2.06-7.69-7.44-9.37-13-3.7-9.28,9.48-12.63,21.18-10.08,34.11,1.65,8.35,7.31,9.78,13.32,3.8,7.18-7.14,10.28-16.06,10.67-27.33Z"/>
        <path class="cls-2" d="M359.35,202.26c-3.4,.69-6.24-1.23-9.31-3.73-3.44-2.8-7.49-5.13-11.64-6.71-4.39-1.67-7.14,.2-8.22,4.77-1,4.25-3.53,5.75-7.74,5.72-16.53-.11-33.06,.07-49.59-.12-4.68-.05-7.7,1.45-9.95,5.67-3.58,6.72-5.04,7.07-12.25,4.54-9.22-3.23-18.39-6.62-27.67-9.69-19.66-6.52-30.86-19.96-34.5-40.32-8.81-49.29-17.93-98.53-26.82-147.81-.47-2.62-.32-5.52,.27-8.12C162.95,2.11,165.89-.11,170.32,0c2.7,.07,5.5,.57,8.05,1.47,47.53,16.68,95.13,33.21,142.49,50.35,15.23,5.51,25.1,17.16,28.22,33.12,7,35.77,13.34,71.68,19.89,107.54,1.46,7.99-.28,9.79-9.62,9.78Zm-51.75-124.36c.08,11.75,11.92,27.18,23.37,30.43,6.06,1.72,9.7-1.11,9.53-7.41-.32-11.48-12.38-27.09-23.33-30.18-6.35-1.8-9.61,.65-9.57,7.17Zm-102.38,77.34c.12,11.42,11.32,26.26,22.65,30.01,6.65,2.2,10.44-.73,10.08-7.78-.57-11.23-12.18-26.15-22.95-29.49-6.43-2-9.85,.54-9.78,7.26Zm-23.33-123.1c.04,11.62,12.24,27.5,23.34,30.38,6.11,1.59,9.77-1.3,9.53-7.52-.47-11.64-12.14-26.63-23.38-30.03-6.27-1.9-9.5,.54-9.48,7.16Z"/>
        <path class="cls-2" d="M249.01,230.8c-.39,.89-.81,2.21-1.5,3.38-11.53,19.75-23.01,39.52-34.75,59.14-1.09,1.83-3.67,3.31-5.84,3.86-6.61,1.69-13.05,3.57-18.19,8.32-5.35,4.95-4.88,8.97,1.38,12.71,4.4,2.63,5.18,5.13,2.6,9.57-9.28,15.95-18.67,31.84-27.97,47.79-2.16,3.71-5.02,4.64-9.05,3.21-32.97-11.66-65.96-23.25-98.93-34.89-1.55-.55-3.06-1.27-4.46-2.13-5.91-3.64-6.98-9.1-2.84-14.74,1.05-1.43,2.32-2.74,3.67-3.9,38.88-33.6,77.63-67.34,116.75-100.67,13.1-11.16,28.54-13.68,44.98-8.29,9.68,3.17,19.23,6.72,28.85,10.07,2.96,1.03,5.09,2.72,5.29,6.57Zm-160.02,110.84c11.01-.59,19.8-2.51,26.83-9.05,5.45-5.07,4.4-10.67-2.65-12.86-4.11-1.28-8.66-1.89-12.95-1.67-8.81,.45-17.14,2.88-23.52,9.49-4.49,4.64-3.59,9.3,2.4,11.63,3.65,1.42,7.65,1.92,9.89,2.45Zm105.84-88.78c10.71-.67,21.41-4.65,26.5-10.46,3.9-4.45,3.27-8.33-1.8-11.09-10.2-5.55-31.19-1.59-38.72,7.3-3.62,4.28-2.94,8.87,2.23,11.09,3.7,1.59,7.84,2.15,11.78,3.16Z"/>
      </g>
    </g>
  </g>
</svg>